<svg id="Layer_1" data-name="Layer 1" xmlns="http://www.w3.org/2000/svg" viewBox="0 0 118.5 184.89"><defs><style>.cls-1,.cls-2,.cls-3{fill:none;stroke:#fff;stroke-miterlimit:10;}.cls-1{stroke-width:5px;}.cls-2{stroke-width:4px;}.cls-3{stroke-width:3px;}</style></defs><title>bulb</title><path class="cls-1" d="M31.51,101.1" transform="translate(-17.43 -7.5)"/><path class="cls-1" d="M121.86,101.1l-0.14.18-1.29,1.62s-14.34,15.82-21.72,31.21-7.84,27.43-7.84,27.43-8.31,2.29-14.28,2.29-14.28-2.29-14.28-2.29-0.46-12-7.84-27.43-23-33-23-33L33,103A56.75,56.75,0,1,1,133.43,66.75c0,13.87-3.31,24.49-11.57,34.35" transform="translate(-17.43 -7.5)"/><path class="cls-2" d="M86.64,177.85a33.81,33.81,0,0,1-19.66,0,3.61,3.61,0,0,1-3.85-3.27v-1.64A3.61,3.61,0,0,1,67,169.67a58.54,58.54,0,0,0,9.83.91,58.54,58.54,0,0,0,9.83-.91,3.61,3.61,0,0,1,3.85,3.27v1.64A3.61,3.61,0,0,1,86.64,177.85Z" transform="translate(-17.43 -7.5)"/><path class="cls-3" d="M85.25,190a38.21,38.21,0,0,1-16.89,0c-1.82,0-3.3-1-3.3-2.12v-1.06c0-1.16,1.49-2.12,3.3-2.12a60.92,60.92,0,0,0,16.89,0c1.82,0,3.3,1,3.3,2.12v1.06C88.56,189,87.07,190,85.25,190Z" transform="translate(-17.43 -7.5)"/></svg>