
<svg width="31px" height="22px" viewBox="0 0 31 22" version="1.1" xmlns="http://www.w3.org/2000/svg" xmlns:xlink="http://www.w3.org/1999/xlink">
    <!-- Generator: Sketch 43.2 (39069) - http://www.bohemiancoding.com/sketch -->
    <desc>Created with Sketch.</desc>
    <defs></defs>
    <g id="Page-1" stroke="none" stroke-width="1" fill="none" fill-rule="evenodd">
        <g id="clouds" fill="#FFFFFF" fill-rule="nonzero">
            <path d="M31,10 C31,8.0993301 29.6657571,6.5028644 27.8788882,6.0987593 C27.9581685,5.7451983 28,5.3774843 28,5 C28,2.23857611 25.7614239,0 23,0 C21.1316704,0 19.5026812,1.02473767 18.6444181,2.54282742 C18.006928,2.19663691 17.2764275,2 16.5,2 C14.7715748,2 13.2707473,2.97446081 12.5169342,4.40396558 C13.8100008,4.83219654 14.9568439,5.5813788 15.8630774,6.5571263 C16.6689817,6.1990038 17.5612509,6 18.5,6 C21.8465273,6 24.6023715,8.5290132 24.9605846,11.7800915 C25.8872675,12.3068123 26.6599548,13.0731787 27.1943501,13.9948943 C29.3093646,13.8887454 31,12.1407663 31,10 Z M27,17 C27,19.7558048 24.7616745,22 22.0005601,22 L4.99943992,22 C2.23249418,22 0,19.7614237 0,17 C0,14.9491311 1.23965876,13.1816085 3.01189661,12.4115388 C3.00400207,12.275367 3,12.1381509 3,12 C3,8.1340066 6.13400656,5 10,5 C12.2979469,5 14.3372745,6.1072805 15.6135384,7.8173973 C16.4525719,7.299097 17.441357,7 18.5,7 C21.5090248,7 23.9536744,9.4163763 23.9993494,12.4145295 C25.7676457,13.1852931 27,14.9483386 27,17 L27,17 Z"></path>
        </g>
    </g>
</svg>