<svg id="Layer_2" data-name="Layer 2" xmlns="http://www.w3.org/2000/svg" viewBox="0 0 313.86 282.67"><defs><style>.cls-1{fill:none;stroke:#fff;stroke-miterlimit:10;stroke-width:12px;}.cls-2{fill:#fff;}</style></defs><title>tomato</title><path class="cls-1" d="M127.83,43.35A117.14,117.14,0,0,0,55.7,82.52c-6,5.45-31.87,30.18-35.58,71.54-3.78,42.14,18.15,71.49,23,77.72A127.47,127.47,0,0,0,128,288.44a52.17,52.17,0,0,0,13.78,0,173.76,173.76,0,0,0,79.4-12.14,170.16,170.16,0,0,0,39.55-22.85,117.05,117.05,0,0,0,33.86-96.59c0.23-8.42.08-39.29-22.47-67.53A104.36,104.36,0,0,0,217.87,54a183.74,183.74,0,0,0-31.76-6c-5-.5-9.83-0.77-14.38-0.87-4.78-.95-9.88-1.78-15.28-2.43A200.44,200.44,0,0,0,127.83,43.35Z" transform="translate(-13.68 -12.33)"/><path class="cls-2" d="M26.86,91.81c14-6.77,39.58-16.35,70-11.46a106,106,0,0,1,17.3,4.31c6,2.82,12.58,5.64,19.85,8.28,6.54,2.37,12.77,4.29,18.58,5.84a15.91,15.91,0,0,0,7.49,1,15.56,15.56,0,0,0,4.19-1A70.27,70.27,0,0,0,178,120.2q1.67,2.65,3.6,5.39a121.63,121.63,0,0,0,10.49,12.88c-0.86-5.93-1.94-12.13-3.3-18.58q-1.27-6-2.7-11.69l-4.19-12c3.46,0,7.06-.09,10.79-0.3a197.34,197.34,0,0,0,23.37-2.7,322.34,322.34,0,0,1,55.73,2.4c15.32,2,23.91,4.35,32.36,8.09a96.89,96.89,0,0,1,23.37,14.68,62.27,62.27,0,0,0-9-10.19c-12.61-11.47-27-15-34.76-16.18a336.74,336.74,0,0,0-85.39-7.38q9.52-7.22,19.18-14.79t19.18-15.28a108.43,108.43,0,0,0,9.89-5.09,108.48,108.48,0,0,0,12-8.09A38.85,38.85,0,0,1,282.29,33a36.41,36.41,0,0,1,12,2.1,22,22,0,0,0-6-3.3,22.52,22.52,0,0,0-11.69-.9c-9.26,2.78-19.21,6.22-29.66,10.49-8.07,3.3-15.57,6.74-22.47,10.19-5.58,2.64-11.39,5.61-17.38,9a271.86,271.86,0,0,0-27,17.38l2.4-22.17a8.87,8.87,0,0,0,3.9-6.59,8.32,8.32,0,0,0-1.5-5.09,12.79,12.79,0,0,0-3-3.3,13.49,13.49,0,0,0-8.09-2.7,10,10,0,0,0-5.39,2.4,10.58,10.58,0,0,0-3.3,8.09,40.88,40.88,0,0,1-4.49,16.18L121.39,17.43l-15.58-5.09c-1.72.35-15.2,3.3-18.28,13.18-0.9,2.89-1.83,9.3,1.5,11.39,1.91,1.19,4.43.47,5.69,0-1.4-.56-4.28-2-5.39-4.79-2-5.21,3.1-12.21,9-14.68s11.5,0,12.88.6a141.36,141.36,0,0,1,29.36,54.83,131.89,131.89,0,0,0-31.16-16.48,14.26,14.26,0,0,0-9.59-7.19,38.64,38.64,0,0,0-9.89-7.79c-11.08-6.08-22.09-4.9-26.37-4.19a37.09,37.09,0,0,1,23.07,6.59,34.55,34.55,0,0,1,7.79,7.79c2.74,2.54,5.73,5.15,9,7.79,3,2.41,5.88,4.6,8.69,6.59a44.84,44.84,0,0,1,13.78,13.78,168.22,168.22,0,0,0-46.74-7.49A141.07,141.07,0,0,0,26.86,91.81Z" transform="translate(-13.68 -12.33)"/></svg>